<?xml version="1.0" encoding="utf-8"?>
<!-- Generator: Adobe Illustrator 23.0.1, SVG Export Plug-In . SVG Version: 6.00 Build 0)  -->
<svg version="1.1" id="Layer_1" xmlns="http://www.w3.org/2000/svg" xmlns:xlink="http://www.w3.org/1999/xlink" x="0px" y="0px"
	 viewBox="0 0 3898 4500" style="enable-background:new 0 0 3898 4500;" xml:space="preserve">
<style type="text/css">
	.st0{fill:#ef233c;}
</style>
<g>
	<path class="st0" d="M0.4,3375V1125L1949,0l1948.6,1125v2250L1949,4500L0.4,3375z M1949,4018.2l1531.3-884.1V1365.9L1949,481.8
		L417.7,1365.9v1768.2L1949,4018.2z"/>
	<g>
		<path class="st0" d="M1032.9,2661.3v-143.5l201.8-204.1c39.8-41.3,72.3-76,96.3-103c23.3-26.2,40-49.4,49.6-69.1
			c9.4-19.1,14.1-39.7,14.1-61.3c0-24.7-6.9-42.4-21-54c-14.6-11.9-34-17.9-57.7-17.9c-26,0-52.4,6.8-78.5,20.2
			c-27,13.8-56.6,34.2-88,60.6l-7.7,6.4l-117.4-137.6l7.3-6.6c23.4-21.1,48.7-41.2,75.1-59.8c26.9-18.8,59-34.4,95.4-46.3
			c36.4-11.9,80.8-17.9,131.8-17.9c55.2,0,103.4,10,143.3,29.7c40,19.8,71.6,47.1,93.9,81c22.3,34.1,33.7,73.6,33.7,117.3
			c0,47-9,89.8-26.8,127.4c-17.6,37.1-43.9,74.6-78.1,111.5c-33.7,36.3-75.5,77.2-124.2,121.4l-71.4,65.6h319.6v179.8H1032.9z"/>
		<path class="st0" d="M1911.6,2672.5c-91.8,0-167.9-15.1-226-44.9l-5.5-2.8v-183.4l14.7,7.6c26.9,13.8,60,25.8,98.5,35.7
			c38.3,9.9,74.3,14.8,107,14.8c43.2,0,76.4-8.9,98.8-26.5c22-17.2,32.7-43.1,32.7-79.1c0-32.2-10.7-56.3-32.7-73.5
			c-22.4-17.6-57.9-26.5-105.6-26.5c-19.4,0-39.6,2-59.9,6c-20.7,4.1-38.7,8-53.4,11.7l-3.7,0.9l-82.4-41.8l31.5-431.8h464.5v180.9
			h-281.8l-10.3,111.2c8.1-1.5,16.7-3.1,25.6-4.8c14.5-2.7,35.3-4.1,62-4.1c48.6,0,92.9,10.2,131.6,30.4
			c39,20.3,70.2,50.3,92.8,89.3c22.5,38.9,34,86.3,34,141c0,90.9-28.1,162.8-83.6,213.6C2105.4,2646.8,2021.6,2672.5,1911.6,2672.5z
			"/>
		<polygon class="st0" points="2355.7,2661.3 2644.4,2018.5 2276.9,2018.5 2276.9,1838.7 2873.5,1838.7 2873.5,1967.8 
			2576.8,2661.3 		"/>
	</g>
</g>
</svg>
